HIERARCHY
ROOT hip
{
  OFFSET 0 0 0
  CHANNELS 6 Xposition Yposition Zposition Zrotation Yrotation Xrotation
  JOINT abdomen
  {
    OFFSET 0 20.6881 -0.73152
    CHANNELS 3 Zrotation Xrotation Yrotation
    JOINT chest
    {
      OFFSET 0 11.7043 -0.48768
      CHANNELS 3 Zrotation Xrotation Yrotation
      JOINT neck
      {
        OFFSET 0 22.1894 -2.19456
        CHANNELS 3 Zrotation Xrotation Yrotation
        JOINT head
        {
          OFFSET -0.24384 7.07133 1.2192
          CHANNELS 3 Zrotation Xrotation Yrotation
          JOINT leftEye
          {
            OFFSET 4.14528 8.04674 8.04672
            CHANNELS 3 Zrotation Xrotation Yrotation
            End Site
            {
              OFFSET 1 0 0
            }
          }
          JOINT rightEye
          {
            OFFSET -3.6576 8.04674 8.04672
            CHANNELS 3 Zrotation Xrotation Yrotation
            End Site
            {
              OFFSET 1 0 0
            }
          }
        }
      }
      JOINT rCollar
      {
        OFFSET -2.68224 19.2634 -4.8768
        CHANNELS 3 Zrotation Xrotation Yrotation
        JOINT rShldr
        {
          OFFSET -8.77824 -1.95073 1.46304
          CHANNELS 3 Zrotation Xrotation Yrotation
          JOINT rForeArm
          {
            OFFSET -28.1742 -1.7115 0.48768
            CHANNELS 3 Zrotation Xrotation Yrotation
            JOINT rHand
            {
              OFFSET -22.5879 0.773209 7.07136
              CHANNELS 3 Zrotation Xrotation Yrotation
              JOINT rThumb1
              {
                OFFSET -1.2192 -0.487915 3.41376
                CHANNELS 3 Zrotation Xrotation Yrotation
                JOINT rThumb2
                {
                  OFFSET -3.37035 -0.52449 3.41376
                  CHANNELS 3 Zrotation Xrotation Yrotation
                  End Site
                  {
                    OFFSET -1.78271 -1.18214 1.43049
                  }
                }
              }
              JOINT rIndex1
              {
                OFFSET -7.75947 0.938293 5.60832
                CHANNELS 3 Zrotation Xrotation Yrotation
                JOINT rIndex2
                {
                  OFFSET -2.54057 -0.884171 1.56538
                  CHANNELS 3 Zrotation Xrotation Yrotation
                  End Site
                  {
                    OFFSET -1.62519 -0.234802 1.16502
                  }
                }
              }
              JOINT rMid1
              {
                OFFSET -8.24714 1.18213 3.41376
                CHANNELS 3 Zrotation Xrotation Yrotation
                JOINT rMid2
                {
                  OFFSET -3.10165 -0.590103 1.0647
                  CHANNELS 3 Zrotation Xrotation Yrotation
                  End Site
                  {
                    OFFSET -2.48547 -0.328903 0.83742
                  }
                }
              }
              JOINT rRing1
              {
                OFFSET -8.82822 0.546677 1.51678
                CHANNELS 3 Zrotation Xrotation Yrotation
                JOINT rRing2
                {
                  OFFSET -2.60934 -0.819778 -0.0198488
                  CHANNELS 3 Zrotation Xrotation Yrotation
                  End Site
                  {
                    OFFSET -2.33842 -0.294052 0.168128
                  }
                }
              }
              JOINT rPinky1
              {
                OFFSET -8.27202 -0.0477905 -0.4584
                CHANNELS 3 Zrotation Xrotation Yrotation
                JOINT rPinky2
                {
                  OFFSET -1.82734 -0.647385 -0.700984
                  CHANNELS 3 Zrotation Xrotation Yrotation
                  End Site
                  {
                    OFFSET -1.69225 -0.51767 -0.607171
                  }
                }
              }
            }
          }
        }
      }
      JOINT lCollar
      {
        OFFSET 2.68224 19.2634 -4.8768
        CHANNELS 3 Zrotation Xrotation Yrotation
        JOINT lShldr
        {
          OFFSET 8.77824 -1.95073 1.46304
          CHANNELS 3 Zrotation Xrotation Yrotation
          JOINT lForeArm
          {
            OFFSET 28.1742 -1.7115 0.48768
            CHANNELS 3 Zrotation Xrotation Yrotation
            JOINT lHand
            {
              OFFSET 22.5879 0.773209 7.07136
              CHANNELS 3 Zrotation Xrotation Yrotation
              JOINT lThumb1
              {
                OFFSET 1.2192 -0.487915 3.41376
                CHANNELS 3 Zrotation Xrotation Yrotation
                JOINT lThumb2
                {
                  OFFSET 3.37035 -0.52449 3.41376
                  CHANNELS 3 Zrotation Xrotation Yrotation
                  End Site
                  {
                    OFFSET 1.78271 -1.18214 1.43049
                  }
                }
              }
              JOINT lIndex1
              {
                OFFSET 7.75947 0.938293 5.60832
                CHANNELS 3 Zrotation Xrotation Yrotation
                JOINT lIndex2
                {
                  OFFSET 2.54057 -0.884171 1.56538
                  CHANNELS 3 Zrotation Xrotation Yrotation
                  End Site
                  {
                    OFFSET 1.62519 -0.234802 1.16502
                  }
                }
              }
              JOINT lMid1
              {
                OFFSET 8.24714 1.18213 3.41376
                CHANNELS 3 Zrotation Xrotation Yrotation
                JOINT lMid2
                {
                  OFFSET 3.10165 -0.590103 1.0647
                  CHANNELS 3 Zrotation Xrotation Yrotation
                  End Site
                  {
                    OFFSET 2.48547 -0.328903 0.83742
                  }
                }
              }
              JOINT lRing1
              {
                OFFSET 8.82822 0.546677 1.51678
                CHANNELS 3 Zrotation Xrotation Yrotation
                JOINT lRing2
                {
                  OFFSET 2.60934 -0.819778 -0.0198488
                  CHANNELS 3 Zrotation Xrotation Yrotation
                  End Site
                  {
                    OFFSET 2.33842 -0.294052 0.168128
                  }
                }
              }
              JOINT lPinky1
              {
                OFFSET 8.27202 -0.0477905 -0.4584
                CHANNELS 3 Zrotation Xrotation Yrotation
                JOINT lPinky2
                {
                  OFFSET 1.82734 -0.647385 -0.700984
                  CHANNELS 3 Zrotation Xrotation Yrotation
                  End Site
                  {
                    OFFSET 1.69225 -0.51767 -0.607171
                  }
                }
              }
            }
          }
        }
      }
    }
  }
  JOINT rButtock
  {
    OFFSET -8.77824 4.35084 1.2192
    CHANNELS 3 Zrotation Xrotation Yrotation
    JOINT rThigh
    {
      OFFSET 0 -1.70687 -2.19456
      CHANNELS 3 Zrotation Xrotation Yrotation
      JOINT rShin
      {
        OFFSET 0 -36.8199 0.73152
        CHANNELS 3 Zrotation Xrotation Yrotation
        JOINT rFoot
        {
          OFFSET 0.73152 -45.1104 -5.12064
          CHANNELS 3 Zrotation Xrotation Yrotation
          End Site
          {
            OFFSET -1.1221 -3.69964 12.103
          }
        }
      }
    }
  }
  JOINT lButtock
  {
    OFFSET 8.77824 4.35084 1.2192
    CHANNELS 3 Zrotation Xrotation Yrotation
    JOINT lThigh
    {
      OFFSET 0 -1.70687 -2.19456
      CHANNELS 3 Zrotation Xrotation Yrotation
      JOINT lShin
      {
        OFFSET 0 -36.8199 0.73152
        CHANNELS 3 Zrotation Xrotation Yrotation
        JOINT lFoot
        {
          OFFSET -0.73152 -45.1104 -5.12064
          CHANNELS 3 Zrotation Xrotation Yrotation
          End Site
          {
            OFFSET 1.1221 -3.69964 12.103
          }
        }
      }
    }
  }
}
MOTION
Frames:	5
Frame Time:	0.00833333
-33.7837 79.8729 -4.9647 2.2329 -43.1133 12.1464 -0.791222 17.3074 -1.17115 2.76525 -3.2642 -0.371951 -10.9502 -3.55596 -3.47503 11.0556 -9.05931 -2.31121 -0.0 0.0 0.0 -0.0 0.0 0.0 -4.11108e-14 2.61442e-13 3.18292e-13 72.249 23.7414 11.6538 -14.1425 -7.06995 25.8414 -0.071376 7.60146 1.07457 -1.97594e-09 1.02647e-09 2.19935e-10 -3.41246e-09 1.78101e-09 3.97093e-10 -1.97594e-09 1.02646e-09 2.19937e-10 7.73091 5.47488 0.417314 -1.97594e-09 1.02647e-09 2.19943e-10 2.90554 0.965183 0.102902 -1.97594e-09 1.02647e-09 2.1994e-10 10.2786 0.731801 0.0259123 -1.97594e-09 1.02647e-09 2.1995e-10 2.22167 -0.733487 -0.20892 -4.12915e-14 2.6141e-13 3.18138e-13 -67.3247 42.8617 -24.41 18.8199 -11.5965 -35.8858 0.0801843 -7.6237 1.08112 -1.05995e-09 -1.19848e-09 -6.45717e-10 -1.83241e-09 -2.08358e-09 -1.12684e-09 -1.05995e-09 -1.19847e-09 -6.45695e-10 -7.73091 5.47488 -0.417314 -1.05995e-09 -1.19848e-09 -6.45718e-10 -2.90554 0.965183 -0.102902 -1.05995e-09 -1.19848e-09 -6.45719e-10 -10.2786 0.731801 -0.0259123 -1.05995e-09 -1.19848e-09 -6.45724e-10 -2.22167 -0.733487 0.20892 -2.03217e-16 0.0 -3.88251e-19 -10.1284 -25.1746 -6.68612 -0.701369 51.625 0.917129 -2.65965 -9.48976 -8.40414 2.03217e-16 0.0 3.88251e-19 -3.99969 -44.0441 3.67632 0.271959 36.2212 -0.136025 -0.0740991 -1.75758 -3.94473
-34.0538 79.8073 -4.56393 2.2531 -42.8913 11.8781 -0.92558 17.1692 -1.14602 2.74726 -3.19971 -0.376966 -10.9385 -3.51127 -3.46952 11.1253 -9.21086 -2.29203 -0.0 0.0 0.0 -0.0 0.0 0.0 7.8004e-14 2.13115e-13 -9.49197e-15 72.1154 23.5453 12.1238 -14.3058 -7.20383 26.1712 -0.0519525 6.49083 0.916189 -1.15635e-09 -9.01368e-10 -2.77214e-10 -1.99976e-09 -1.55785e-09 -4.70833e-10 -1.15636e-09 -9.01371e-10 -2.77211e-10 7.73091 5.47488 0.417314 -1.15636e-09 -9.01368e-10 -2.77204e-10 2.90554 0.965183 0.102902 -1.15635e-09 -9.01368e-10 -2.77208e-10 10.2786 0.731801 0.0259123 -1.15636e-09 -9.01364e-10 -2.77198e-10 2.22167 -0.733487 -0.20892 7.78485e-14 2.13078e-13 -9.59136e-15 -67.3998 42.1263 -24.408 18.8781 -11.6629 -36.0211 0.128704 -10.1757 1.44549 -1.2094e-09 -4.94266e-11 -2.22384e-10 -2.0911e-09 -9.42685e-11 -3.93947e-10 -1.2094e-09 -4.94218e-11 -2.22359e-10 -7.73091 5.47488 -0.417314 -1.2094e-09 -4.94287e-11 -2.22388e-10 -2.90554 0.965183 -0.102902 -1.20941e-09 -4.94278e-11 -2.22388e-10 -10.2786 0.731801 -0.0259123 -1.2094e-09 -4.9425e-11 -2.22391e-10 -2.22167 -0.733487 0.20892 -2.03217e-16 0.0 -3.88251e-19 -10.4736 -25.4563 -7.10693 -0.75387 52.9394 0.971156 -2.56295 -8.40487 -8.5695 2.03217e-16 0.0 3.88251e-19 -4.18809 -43.862 3.43951 0.285734 36.8769 -0.151256 -0.113979 -2.21092 -3.9316
-34.3161 79.7613 -4.17441 2.2353 -42.7595 11.6605 -1.04749 16.968 -1.25266 2.82983 -3.135 -0.415015 -11.1305 -3.49224 -3.41651 11.3466 -9.29837 -2.09749 -0.0 0.0 0.0 -0.0 0.0 0.0 1.08982e-13 1.96443e-13 -9.62665e-14 71.9268 23.3345 12.7211 -14.4506 -7.32239 26.4684 -0.0351713 5.40051 0.761193 -8.24813e-10 -1.18529e-09 -5.73245e-10 -1.42866e-09 -2.05039e-09 -9.86546e-10 -8.24817e-10 -1.18529e-09 -5.73243e-10 7.73091 5.47488 0.417314 -8.24815e-10 -1.18529e-09 -5.73237e-10 2.90554 0.965183 0.102902 -8.24812e-10 -1.18529e-09 -5.73239e-10 10.2786 0.731801 0.0259123 -8.24815e-10 -1.18528e-09 -5.73231e-10 2.22167 -0.733487 -0.20892 1.08858e-13 1.96404e-13 -9.63616e-14 -67.7526 41.1469 -24.301 18.9223 -11.7137 -36.1243 0.204593 -13.2056 1.8859 -1.13947e-09 1.33553e-10 -9.88807e-11 -1.96841e-09 2.22911e-10 -1.80409e-10 -1.13947e-09 1.33558e-10 -9.88565e-11 -7.73091 5.47488 -0.417314 -1.13947e-09 1.33551e-10 -9.88833e-11 -2.90554 0.965183 -0.102902 -1.13948e-09 1.33552e-10 -9.88847e-11 -10.2786 0.731801 -0.0259123 -1.13947e-09 1.33556e-10 -9.8887e-11 -2.22167 -0.733487 0.20892 -2.03217e-16 0.0 -3.88251e-19 -10.8184 -25.8728 -7.48827 -0.813691 54.308 1.03002 -2.42941 -7.22085 -8.67247 2.03217e-16 0.0 3.88251e-19 -4.3556 -43.7382 3.18508 0.298901 37.4996 -0.166804 -0.143138 -2.64883 -3.83751
-34.5869 79.6473 -3.81905 2.1319 -42.7828 11.5288 -1.17468 16.7226 -1.43979 2.9735 -3.07221 -0.473732 -11.4481 -3.47682 -3.33004 11.6689 -9.35787 -1.78688 -0.0 0.0 0.0 -0.0 0.0 0.0 9.3771e-14 1.8827e-13 -6.15642e-14 71.7462 23.0673 13.4098 -14.584 -7.43174 26.745 -0.0216274 4.22844 0.595205 -7.0605e-10 -5.89033e-10 -7.48564e-10 -1.22419e-09 -1.01903e-09 -1.29166e-09 -7.06052e-10 -5.89035e-10 -7.48567e-10 7.73091 5.47488 0.417314 -7.06052e-10 -5.89033e-10 -7.4856e-10 2.90554 0.965183 0.102902 -7.06048e-10 -5.89033e-10 -7.4856e-10 10.2786 0.731801 0.0259123 -7.06053e-10 -5.8903e-10 -7.48554e-10 2.22167 -0.733487 -0.20892 9.36862e-14 1.88227e-13 -6.16854e-14 -68.2912 39.9948 -24.1269 18.9602 -11.7574 -36.2125 0.333382 -16.6319 2.40189 -9.12431e-10 -1.57073e-10 -1.07826e-10 -1.57275e-09 -2.79571e-10 -1.96313e-10 -9.12435e-10 -1.57068e-10 -1.07805e-10 -7.73091 5.47488 -0.417314 -9.12431e-10 -1.57075e-10 -1.07826e-10 -2.90554 0.965183 -0.102902 -9.12438e-10 -1.57074e-10 -1.07829e-10 -10.2786 0.731801 -0.0259123 -9.12426e-10 -1.57069e-10 -1.07832e-10 -2.22167 -0.733487 0.20892 -2.03217e-16 0.0 -3.88251e-19 -11.1809 -26.3867 -7.85958 -0.881252 55.7243 1.09473 -2.2701 -5.96111 -8.7325 2.03217e-16 0.0 3.88251e-19 -4.51198 -43.6496 2.91708 0.311781 38.102 -0.182837 -0.162627 -3.07449 -3.68265
-34.8419 79.493 -3.48886 2.0746 -42.7625 11.4245 -1.29912 16.4865 -1.60475 3.10983 -3.01487 -0.526032 -11.7601 -3.48498 -3.2444 11.9746 -9.37961 -1.48039 -0.0 0.0 0.0 -0.0 0.0 0.0 7.34445e-14 1.83375e-13 -7.96963e-15 71.6268 22.8156 14.1262 -14.7468 -7.56936 27.0778 -0.0112889 2.99633 0.42135 -6.09416e-10 1.1127e-10 -9.008e-10 -1.05677e-09 1.92469e-10 -1.55605e-09 -6.09417e-10 1.11268e-10 -9.00807e-10 7.73091 5.47488 0.417314 -6.09419e-10 1.11269e-10 -9.00801e-10 2.90554 0.965183 0.102902 -6.09414e-10 1.1127e-10 -9.008e-10 10.2786 0.731801 0.0259123 -6.09421e-10 1.11273e-10 -9.00795e-10 2.22167 -0.733487 -0.20892 7.33937e-14 1.83333e-13 -8.13076e-15 -68.8403 38.8033 -24.022 18.9809 -11.7814 -36.2605 0.515197 -20.1593 2.95586 -6.34352e-10 -5.89581e-10 -1.77378e-10 -1.08858e-09 -1.02712e-09 -3.16654e-10 -6.3436e-10 -5.89577e-10 -1.77361e-10 -7.73091 5.47488 -0.417314 -6.34351e-10 -5.89583e-10 -1.77375e-10 -2.90554 0.965183 -0.102902 -6.34358e-10 -5.89582e-10 -1.7738e-10 -10.2786 0.731801 -0.0259123 -6.34344e-10 -5.89576e-10 -1.77384e-10 -2.22167 -0.733487 0.20892 -2.03217e-16 0.0 -3.88251e-19 -11.5264 -26.9426 -8.18985 -0.95613 57.1628 1.16634 -2.1133 -4.71384 -8.80716 2.03217e-16 0.0 3.88251e-19 -4.63031 -43.5551 2.68115 0.324669 38.6998 -0.199813 -0.177033 -3.49774 -3.51009
